<svg width="9" height="10" viewBox="0 0 9 10" fill="none" xmlns="http://www.w3.org/2000/svg">
<path d="M6.125 1.25V2.08333H7.47125L3.785 6.17917L4.31375 6.76667L8 2.67083V4.16667H8.75V1.25M8 7.91667H2.75V2.08333H5.375V1.25H2.75C2.55109 1.25 2.36032 1.3378 2.21967 1.49408C2.07902 1.65036 2 1.86232 2 2.08333V7.91667C2 8.13768 2.07902 8.34964 2.21967 8.50592C2.36032 8.6622 2.55109 8.75 2.75 8.75H8C8.19891 8.75 8.38968 8.6622 8.53033 8.50592C8.67098 8.34964 8.75 8.13768 8.75 7.91667V5H8V7.91667Z" fill="#F1F5F9"/>
</svg>
